<?xml version="1.0" encoding="UTF-8"?><svg id="Layer_1" xmlns="http://www.w3.org/2000/svg" viewBox="0 0 343.91 218.07"><defs><style>.cls-1{fill:#ef9d9c;}</style></defs><path class="cls-1" d="M3.86,63.57V2.9H37.34c17.62,0,26.43,5.24,26.43,15.72,0,5.72-3.17,9.97-9.52,12.75,3.96,1.3,6.93,3.13,8.88,5.48,1.95,2.35,2.93,5.31,2.93,8.88,0,5.84-2.31,10.27-6.93,13.3-4.62,3.03-11.34,4.55-20.18,4.55H3.86ZM36.49,25.93c4.47,0,6.71-1.5,6.71-4.5,0-1.59-.54-2.7-1.61-3.36-1.08-.65-2.86-.98-5.35-.98h-12.49v8.84h12.75Zm.51,23.45c3,0,5.14-.43,6.42-1.27,1.27-.85,1.91-2.21,1.91-4.08s-.67-3.21-2-4.04c-1.33-.82-3.5-1.23-6.5-1.23h-13.09v10.62h13.26Z"/><path class="cls-1" d="M108.72,63.57v-5.61c-4.82,4.65-10.31,6.97-16.48,6.97-5.38,0-9.63-1.5-12.75-4.5-3.12-3-4.67-7.14-4.67-12.41V18.7h20.65v25.58c0,3.63,1.76,5.44,5.27,5.44,1.87,0,3.57-.68,5.1-2.04,1.59-1.42,2.38-2.97,2.38-4.67V18.7h20.65V63.57h-20.14Z"/><path class="cls-1" d="M136.25,63.57v-11.47l22.43-19.2h-21.92v-14.19h48.35v11.47l-22.43,19.2h23.88l-1.53,14.19h-48.77Z"/><path class="cls-1" d="M190.63,63.57v-11.47l22.43-19.2h-21.92v-14.19h48.35v11.47l-22.43,19.2h23.88l-1.53,14.19h-48.77Z"/><path class="cls-1" d="M57.9,116.03c0,7.53-2.55,13.41-7.65,17.63-5.1,4.22-12.18,6.33-21.24,6.33s-16.03-2.04-20.9-6.12c-4.87-4.08-7.31-9.91-7.31-17.5s2.55-13.41,7.65-17.63c5.1-4.22,12.18-6.33,21.24-6.33s16.03,2.04,20.9,6.12c4.87,4.08,7.31,9.91,7.31,17.5Zm-20.73,.17c0-5.95-2.61-8.92-7.82-8.92s-7.82,2.97-7.82,8.92,2.6,8.92,7.82,8.92,7.82-2.97,7.82-8.92Z"/><path class="cls-1" d="M100.56,138.63v-25.41c0-3.74-1.84-5.61-5.52-5.61-2.1,0-3.91,.71-5.44,2.12-1.53,1.42-2.29,3-2.29,4.76v24.13h-20.65v-44.87h20.14v5.61c4.81-4.64,10.39-6.97,16.74-6.97,5.49,0,9.81,1.5,12.96,4.5,3.14,3,4.72,7.14,4.72,12.41v29.32h-20.65Z"/><path class="cls-1" d="M194.29,137.19c-2.49,.79-4.92,1.36-7.27,1.7-2.35,.34-4.97,.51-7.86,.51-7.08,0-12.17-1.4-15.25-4.21-3.09-2.8-4.63-7.41-4.63-13.81v-13.09h-8.5v-14.53h8.5v-11.64h20.65v11.64h12.75v14.53h-12.75v11.13c0,1.81,.44,3.12,1.32,3.91,.88,.79,2.36,1.19,4.46,1.19,1.75,0,3.79-.34,6.12-1.02l2.46,13.68Z"/><path class="cls-1" d="M235.33,138.63v-25.41c0-3.74-1.84-5.61-5.52-5.61-2.1,0-3.91,.71-5.44,2.12-1.53,1.42-2.29,3-2.29,4.76v24.13h-20.65v-60.67h20.65v20.9c4.7-4.3,10.11-6.46,16.23-6.46,5.49,0,9.81,1.5,12.96,4.5,3.14,3,4.72,7.14,4.72,12.41v29.32h-20.65Z"/><path class="cls-1" d="M283.76,120.36c.23,2.38,1.05,4.12,2.46,5.23,1.42,1.1,3.54,1.66,6.37,1.66,4.13,0,6.66-1.13,7.56-3.4h18.95c-2.38,10.76-11.39,16.15-27.02,16.15-8.84,0-15.66-2-20.48-5.99-4.82-3.99-7.22-9.73-7.22-17.21,0-3.57,.62-6.84,1.87-9.81,1.25-2.97,3.09-5.55,5.52-7.73,2.44-2.18,5.41-3.87,8.92-5.06,3.51-1.19,7.48-1.78,11.9-1.78,8.61,0,15.25,2.07,19.93,6.2,4.67,4.14,7.01,10,7.01,17.59v4.16h-35.77Zm16.82-9.35c-.11-2.04-.82-3.55-2.12-4.55-1.3-.99-3.31-1.49-6.03-1.49-2.38,0-4.32,.54-5.82,1.61-1.5,1.08-2.39,2.55-2.68,4.42h16.65Z"/><path class="cls-1" d="M25.78,194.23v19.46H3.86v-60.67H56.2v16.15H25.78v8.92h28.72v16.15H25.78Z"/><path class="cls-1" d="M96.57,213.69v-5.61c-4.82,4.65-10.31,6.97-16.48,6.97-5.38,0-9.63-1.5-12.75-4.5-3.12-3-4.67-7.14-4.67-12.41v-29.32h20.65v25.58c0,3.63,1.76,5.44,5.27,5.44,1.87,0,3.57-.68,5.1-2.04,1.59-1.42,2.38-2.97,2.38-4.67v-24.3h20.65v44.87h-20.14Z"/><path class="cls-1" d="M167.35,212.25c-2.49,.79-4.92,1.36-7.27,1.7-2.35,.34-4.97,.51-7.86,.51-7.08,0-12.17-1.4-15.25-4.21-3.09-2.8-4.63-7.41-4.63-13.81v-13.09h-8.5v-14.53h8.5v-11.64h20.65v11.64h12.75v14.53h-12.75v11.13c0,1.81,.44,3.12,1.32,3.91,.88,.79,2.36,1.19,4.46,1.19,1.75,0,3.79-.34,6.12-1.02l2.46,13.68Z"/><path class="cls-1" d="M208.05,213.69v-5.61c-4.82,4.65-10.31,6.97-16.48,6.97-5.38,0-9.63-1.5-12.75-4.5-3.12-3-4.67-7.14-4.67-12.41v-29.32h20.65v25.58c0,3.63,1.76,5.44,5.27,5.44,1.87,0,3.57-.68,5.1-2.04,1.59-1.42,2.38-2.97,2.38-4.67v-24.3h20.65v44.87h-20.14Z"/><path class="cls-1" d="M238.9,213.69v-44.87h20.14v5.69c4.13-4.3,9.23-6.46,15.3-6.46,1.87,0,3.74,.17,5.61,.51l-2.29,15.72c-2.1-.34-4.11-.51-6.03-.51s-3.61,.2-5.23,.59c-1.61,.4-2.93,.96-3.95,1.7-.85,.62-1.54,1.39-2.08,2.29-.54,.91-.81,1.84-.81,2.8v22.52h-20.65Z"/><path class="cls-1" d="M302.63,195.42c.23,2.38,1.05,4.12,2.46,5.23,1.42,1.1,3.54,1.66,6.37,1.66,4.13,0,6.66-1.13,7.56-3.4h18.95c-2.38,10.76-11.39,16.15-27.02,16.15-8.84,0-15.66-2-20.48-5.99-4.82-3.99-7.22-9.73-7.22-17.21,0-3.57,.62-6.84,1.87-9.81,1.25-2.97,3.09-5.55,5.52-7.73,2.44-2.18,5.41-3.87,8.92-5.06,3.51-1.19,7.48-1.78,11.9-1.78,8.61,0,15.25,2.07,19.93,6.2,4.67,4.14,7.01,10,7.01,17.59v4.16h-35.77Zm16.82-9.35c-.11-2.04-.82-3.55-2.12-4.55-1.3-.99-3.31-1.49-6.03-1.49-2.38,0-4.32,.54-5.82,1.61-1.5,1.08-2.39,2.55-2.68,4.42h16.65Z"/></svg>