<?xml version="1.0" encoding="utf-8"?>
<!-- Generator: Adobe Illustrator 26.5.0, SVG Export Plug-In . SVG Version: 6.00 Build 0)  -->
<svg version="1.1" id="Layer_1" xmlns="http://www.w3.org/2000/svg" xmlns:xlink="http://www.w3.org/1999/xlink" x="0px" y="0px"
	 viewBox="0 0 888.9 949.9" style="enable-background:new 0 0 888.9 949.9;" xml:space="preserve">
<style type="text/css">
	.st0{fill:#E15759;}
	.st1{font-family:'Poppins-Regular';}
	.st2{font-size:14px;}
	.st3{fill:#6CA129;}
	.st4{fill:#E5BB33;}
	.st5{fill:#E29633;}
	.st6{fill:#5497C8;}
	.st7{fill:#76B7B2;}
	.st8{fill:#6CA129;fill-opacity:0.75;}
	.st9{fill:#E15759;fill-opacity:0.75;}
	.st10{fill:#5497C8;fill-opacity:0.75;}
	.st11{fill:#E29633;fill-opacity:0.75;}
	.st12{fill:#E5BB33;fill-opacity:0.75;}
</style>
<path class="st0" d="M419.8,172.9c32.7,0,65,6,95.5,17.8l-2.4,6.2c-29.7-11.5-61.3-17.4-93.1-17.4V172.9z"/>
<text transform="matrix(0.1836 -0.983 0.983 0.1836 477.577 168.3591)" class="st1 st2">INTERNET OF THINGS</text>
<path class="st0" d="M521.6,193.2c20.1,8.4,39,19.2,56.4,32.2l-4,5.3c-17-12.7-35.5-23.2-55-31.4L521.6,193.2z"/>
<text transform="matrix(0.4954 -0.8687 0.8687 0.4954 562.8254 202.7804)" class="st1 st2">BLOCKCHAIN</text>
<path class="st0" d="M583.5,229.6c25.7,20.2,47.3,45,64,73.1l-5.7,3.4c-16.2-27.4-37.4-51.6-62.4-71.3L583.5,229.6z"/>
<text transform="matrix(0.7525 -0.6586 0.6586 0.7525 634.1411 265.3358)" class="st1 st2">SMART CITIES</text>
<path class="st0" d="M650.8,308.6c10.6,19,18.8,39.2,24.4,60.2l-6.4,1.7c-5.5-20.5-13.5-40.2-23.8-58.7L650.8,308.6z"/>
<text transform="matrix(0.9267 -0.3758 0.3758 0.9267 676.5433 340.6801)" class="st1 st2">SHARING ECONOMY</text>
<path class="st0" d="M677,375.5c2.5,10.6,4.4,21.3,5.7,32.1l-6.6,0.8c-1.2-10.5-3-21-5.5-31.2L677,375.5z"/>
<text transform="matrix(0.9848 -0.1739 0.1739 0.9848 691.2031 394.5861)" class="st1 st2">MEGACITIES</text>
<path class="st0" d="M683.3,414.3c1.9,21.7,1.1,43.5-2.3,64.9l-6.6-1.1c3.4-20.9,4.1-42.2,2.3-63.3L683.3,414.3z"/>
<text transform="matrix(0.9994 3.570729e-02 -3.570729e-02 0.9994 693.8124 455.6543)" class="st1 st2">DRIVERLESS VEHICLES</text>
<path class="st0" d="M679.8,486c-4,21.4-10.6,42.2-19.7,61.9l-6.1-2.8c8.9-19.3,15.3-39.5,19.2-60.4L679.8,486z"/>
<text transform="matrix(0.953 0.3029 -0.3029 0.953 679.8076 524.461)" class="st1 st2">INFRASTRUCTURE BOTTLENECKS</text>
<path class="st3" d="M657.2,554.1c-4.8,9.7-10.2,19.2-16.1,28.3l-5.6-3.7c5.8-8.9,11-18.1,15.7-27.6L657.2,554.1z"/>
<text transform="matrix(0.8687 0.4954 -0.4954 0.8687 656.0536 577.1967)" class="st1 st2">MACHINE LEARNING</text>
<path class="st3" d="M637.2,588c-18.6,26.9-42,50-69,68.4l-3.7-5.5c26.4-17.9,49.2-40.5,67.3-66.6L637.2,588z"/>
<text transform="matrix(0.7036 0.7106 -0.7106 0.7036 609.2708 636.5703)" class="st1 st2">ROBOTICS</text>
<path class="st3" d="M562.5,660.1c-18.3,11.7-38,21.2-58.6,28.1l-2.1-6.3c20.1-6.7,39.3-15.9,57.1-27.4L562.5,660.1z"/>
<text transform="matrix(0.4321 0.9018 -0.9018 0.4321 534.0413 687.2719)" class="st1 st2">MACHINE READING</text>
<path class="st4" d="M497.4,690.3c-20.8,6.4-42.3,10.2-64,11.3l-0.3-6.7c21.2-1.1,42.1-4.8,62.4-11L497.4,690.3z"/>
<text transform="matrix(0.1739 0.9848 -0.9848 0.1739 464.2722 710.2573)" class="st1 st2">SUSTAINABLE ENERGY</text>
<path class="st4" d="M426.6,701.9c-10.9,0.3-21.7-0.1-32.5-1.2l0.6-6.6c10.5,1,21.1,1.4,31.7,1.1L426.6,701.9z"/>
<text transform="matrix(3.570726e-02 -0.9994 0.9994 3.570726e-02 409.9675 861.1425)" class="st1 st2">CLIMATE ENGINEERING</text>
<path class="st4" d="M387.3,699.9c-10.8-1.3-21.5-3.3-32-6l1.6-6.5c10.3,2.6,20.7,4.5,31.2,5.8L387.3,699.9z"/>
<text transform="matrix(0.1836 -0.983 0.983 0.1836 346.8358 849.3204)" class="st1 st2">CLIMATE LEGISLATION </text>
<path class="st5" d="M348.7,692.2c-10.5-2.9-20.7-6.5-30.8-10.7l2.6-6.2c9.8,4.1,19.8,7.5,30,10.4L348.7,692.2z"/>
<text transform="matrix(0.3275 -0.9449 0.9449 0.3275 248.0675 945.4682)" class="st1 st2">SOCIO-ECONOMIC STATUS OF WOMEN</text>
<path class="st5" d="M311.6,678.8c-19.8-8.9-38.5-20.2-55.6-33.6l4.1-5.2c16.6,13.1,34.8,24.1,54.2,32.8L311.6,678.8z"/>
<text transform="matrix(0.5177 -0.8556 0.8556 0.5177 212.7639 787.4997)" class="st1 st2">AGING POPULATION</text>
<path class="st5" d="M250.7,640.9c-8.4-6.9-16.3-14.4-23.7-22.3l4.9-4.6c7.3,7.7,15,15,23.1,21.7L250.7,640.9z"/>
<text transform="matrix(0.685 -0.7285 0.7285 0.685 97.0613 784.7505)" class="st1 st2">POPULATION DECLINE IN WEST</text>
<path class="st5" d="M222.4,613.6c-7.2-8.1-14-16.6-20.1-25.6l5.5-3.8c6,8.7,12.6,17,19.6,24.9L222.4,613.6z"/>
<text transform="matrix(0.7855 -0.6188 0.6188 0.7855 46.6273 733.749)" class="st1 st2">POPULATION GROWTH IN EAST</text>
<path class="st5" d="M198.5,582.3c-17.9-27.3-30.6-57.7-37.4-89.7l6.5-1.4c6.7,31.1,19,60.8,36.5,87.4L198.5,582.3z"/>
<text transform="matrix(0.9229 -0.385 0.385 0.9229 47.4011 600.4679)" class="st1 st2">GLOBAL MIGRATION</text>
<path class="st6" d="M159.7,486c-8-42.9-5.3-87.1,7.9-128.7l6.4,2c-12.9,40.5-15.5,83.7-7.7,125.5L159.7,486z"/>
<text transform="matrix(0.9981 6.151583e-02 -6.151583e-02 0.9981 13.5709 415.2793)" class="st1 st2">TRIPLE BOTTOM LINE</text>
<path class="st6" d="M169.8,350.8c3.6-10.3,7.7-20.3,12.5-30l6,2.9c-4.7,9.5-8.7,19.3-12.2,29.3L169.8,350.8z"/>
<text transform="matrix(0.9229 0.385 -0.385 0.9229 29.6898 278.369)" class="st1 st2">DATA TRANSPARENCY</text>
<path class="st6" d="M185.4,314.6c5-9.6,10.7-18.9,16.8-27.8l5.5,3.8c-6,8.7-11.5,17.8-16.4,27.1L185.4,314.6z"/>
<text transform="matrix(0.8556 0.5177 -0.5177 0.8556 5.5109 193.048)" class="st1 st2">COLLABORATIVE GOVERNANCE</text>
<path class="st6" d="M206.2,281.2c19.3-26.4,43.3-48.9,70.8-66.5l3.6,5.6c-26.8,17.2-50.2,39.2-69,64.9L206.2,281.2z"/>
<text transform="matrix(0.685 0.7285 -0.7285 0.685 112.4965 124.2799)" class="st1 st2">GOVERNMENT DOT COM</text>
<path class="st7" d="M282.8,211.1c9.3-5.6,18.9-10.7,28.8-15.1l2.7,6.1c-9.7,4.3-19,9.2-28.1,14.7L282.8,211.1z"/>
<text transform="matrix(0.4641 0.8858 -0.8858 0.4641 234.2401 94.445)" class="st1 st2">DIGITAL BANKING</text>
<path class="st7" d="M317.9,193.2c30.1-12.6,62.4-19.5,95-20.3l0.2,6.7c-31.8,0.8-63.2,7.5-92.6,19.8L317.9,193.2z"/>
<text transform="matrix(0.209 0.9779 -0.9779 0.209 320.2829 7.3065)" class="st1 st2">INCOME INEQUALIZATION</text>
<g>
	<path class="st8" d="M676,415.3c1.8,20.8,1,41.8-2.2,62.5c-169.4-26.9-191.8,15.3-67.3,126.7L589.2,631l-28.5,13.6
		C466.7,506.5,505.2,430,676,415.3z"/>
	<path class="st9" d="M212.4,285.3c12.4-16.9,26.7-32.2,42.8-45.5c109.7,131.8,175,114.8,195.7-51l31.6-0.8l27.5,15.7
		C449.8,359.5,350.6,386.7,212.4,285.3z"/>
	<path class="st8" d="M579.2,235.6c8.1,6.4,15.8,13.3,23.1,20.6C480.6,377,455.8,512.8,527.7,663.5l-11.3,12.3l-16.7-0.9
		C446.4,516.5,472.9,370.1,579.2,235.6z"/>
	<path class="st10" d="M602.8,256.7c7.3,7.4,14.1,15.1,20.4,23.3c-135.6,105-285.5,142-449.6,111.1l-3.2-16.4l10.6-12.9
		C340.1,412.2,480.8,377.2,602.8,256.7z"/>
	<path class="st11" d="M669.9,377.5c2.4,10.1,4.2,20.2,5.4,30.5c-170.4,19.6-317.9,84.9-442.7,196l-14.9-7.4l-3.7-16.3
		C351.2,485,503.1,417.4,669.9,377.5z"/>
	<path class="st12" d="M672.5,485c-1.9,10.2-4.4,20.2-7.6,30c-163.5-51.7-255.6,5.3-276.3,171l-16.1,4.2l-13.5-9.8
		C399.5,518.4,504,453.3,672.5,485z"/>
	<path class="st10" d="M664.8,515.6c-3.1,9.8-6.9,19.5-11.2,28.9c-155.9-71.4-287.1-171.4-393.7-300.1l8-14.7l16.4-3.2
		C374.6,367.1,501.4,463.5,664.8,515.6z"/>
	<path class="st9" d="M494.9,683.4c-9.9,3-19.9,5.4-30.1,7.3c-30-168.8,21.1-304.2,153.5-406.1l14.4,8.5l2.6,16.5
		C491.6,394.8,444.8,519.4,494.9,683.4z"/>
	<path class="st9" d="M464.2,690.8c-10.2,1.8-20.5,3-30.8,3.5c-9.1-171.2,63.8-288.1,218.7-350.7l11.5,12l-1.9,16.6
		C500.4,415.6,434.6,521.9,464.2,690.8z"/>
	<path class="st10" d="M426.1,694.5c-10.3,0.3-20.7-0.1-31-1.1c16.4-170.7-58.7-261.3-225.4-271.8l-5.2-15.8l8.9-14.1
		C337.6,422.2,421.9,523.1,426.1,694.5z"/>
	<path class="st11" d="M350.3,685.1c-10-2.8-19.7-6.2-29.3-10.1c65.8-158.3,19.8-210.3-138.1-155.8L172,506.5l2.8-16.4
		C338.1,455,396.6,520,350.3,685.1z"/>
	<path class="st11" d="M314.3,672c-9.4-4.2-18.6-9-27.4-14.4c88.6-146.8,57.9-183.5-92.1-110l-12.4-11.2l0.8-16.7
		C340.9,464.8,384.6,515.6,314.3,672z"/>
	<path class="st11" d="M255.2,635.1c-7.9-6.6-15.5-13.7-22.6-21.2c124.8-117.6,143.8-105,57.2,37.8l-16.5-2.7l-8.4-14.4
		C368.2,503.1,364.9,503.3,255.2,635.1z"/>
	<path class="st9" d="M204.4,578c-5.7-8.7-10.8-17.6-15.3-26.9c153.8-75.8,303.7-154.3,449.7-235.4l12.9,10.5l0.1,16.7
		C497.1,405.9,348,484.3,204.4,578z"/>
	<path class="st9" d="M166.9,484.3c-1.9-10.2-3.2-20.4-3.8-30.7c171.1-10.8,256.8-99.7,257-266.7l15.5-6.2l14.6,8
		C429.9,354.5,335.5,453,166.9,484.3z"/>
	<path class="st10" d="M163,452.9c-0.6-10.3-0.6-20.7,0-31c171.2,10.3,182.8-23.4,35-101.1l1.7-16.6l13.9-9.2
		C351,389.9,334.2,442.6,163,452.9z"/>
	<path class="st9" d="M176.8,352.9c3.4-9.8,7.4-19.3,11.9-28.6c154,75.4,272.5,40.6,355.4-104.4l16.5,2.3l8.7,14.2
		C469.6,370.4,338.8,409.2,176.8,352.9z"/>
	<path class="st9" d="M286.9,217.2c8.9-5.3,18-10.1,27.4-14.4c70.3,156.4,137.7,157.6,202.2,3.5l16.7,0.3l10.4,13
		C461,364.8,375.5,364,286.9,217.2z"/>
	<path class="st8" d="M321.1,199.9c9.5-4,19.3-7.4,29.3-10.1c46.3,165.1,144.3,284.6,294.2,358.5l-1.3,16.6l-13.7,9.6
		C489.7,483.1,386.9,358.2,321.1,199.9z"/>
	<path class="st8" d="M351,189.6c10-2.8,20.1-4.9,30.3-6.5c25.7,169.5,107.1,302,244.3,397.2l-3.7,16.3l-14.9,7.4
		C482.1,492.9,396.8,354.8,351,189.6z"/>
	<path class="st8" d="M381.9,183c10.2-1.5,20.5-2.4,30.9-2.7c4.7,171.4,52,327.5,141.9,468.2l-9.7,13.6l-16.6,1.1
		C455.9,512.7,407.1,352.6,381.9,183z"/>
</g>
</svg>
