<?xml version="1.0" encoding="UTF-8"?><svg id="BubbleChart" xmlns="http://www.w3.org/2000/svg" viewBox="0 0 78.35 78.15"><defs><style>.cls-1{fill:#f5f5f5;stroke:#666;stroke-miterlimit:10;stroke-width:2.45px;}</style></defs><g id="SocialTech"><g id="infoButton"><circle class="cls-1" cx="39.37" cy="38.91" r="36.77"/><path d="M34.04,32.71c-1.02-.49-1.52-.95-1.52-1.38s.21-.77,.62-1.03c1.43-.86,3.68-1.29,6.77-1.29h.85c1.05,0,1.65,.49,1.79,1.46,.08,.53,.12,4.08,.12,10.65s.14,10.34,.41,11.31,.93,1.71,1.96,2.23c1.04,.52,1.55,1.04,1.55,1.57,0,.74-2.42,1.11-7.27,1.11l-.88,.03h-3.57c-1.43,0-2.14-.35-2.14-1.05,0-.59,.43-1.15,1.3-1.7,.87-.55,1.47-1.15,1.8-1.82,.37-.72,.56-2.41,.56-5.07l.03-.94v-.91l.03-1.38v-.91l.03-.91c0-4.63-.15-7.33-.45-8.1-.3-.77-.96-1.4-1.98-1.89Zm9.32-13.07c0,.86-.37,1.66-1.1,2.39s-1.46,1.1-2.18,1.1c-.16,.04-.28,.06-.38,.06l-.64,.06c-.98,0-1.85-.32-2.62-.97s-1.16-1.47-1.16-2.49v-.53c0-1.02,.41-1.87,1.22-2.56,.81-.69,1.74-1.04,2.8-1.04h.15l1,.12c.61,0,1.24,.33,1.89,.98,.65,.65,.98,1.31,.98,1.98l.06,.26v.64Z"/></g></g></svg>